<?xml version="1.0" encoding="utf-8"?>
<!-- Generator: Adobe Illustrator 19.0.0, SVG Export Plug-In . SVG Version: 6.00 Build 0)  -->
<svg version="1.1" id="Layer_1" xmlns="http://www.w3.org/2000/svg" xmlns:xlink="http://www.w3.org/1999/xlink" x="0px" y="0px"
	 viewBox="-870 450.5 218.5 39.3" style="enable-background:new -870 450.5 218.5 39.3;" xml:space="preserve">
<style type="text/css">
	.st0{fill:#0080C6;}
	.st1{fill:none;stroke:#FFFFFF;stroke-miterlimit:10;}
	.st2{fill:none;}
	.st3{fill:#FFFFFF;}
</style>
<ellipse class="st0" cx="-850.5" cy="470.1" rx="19.5" ry="19.7"/>
<ellipse class="st1" cx="-850.5" cy="470.2" rx="17.7" ry="17.9"/>
<g>
	<rect x="-870" y="463.5" class="st2" width="38.9" height="20.5"/>
	<path class="st3" d="M-863.2,463.5h6.2c2.8,0,6.2,2.1,6.2,6.6c0,4.5-3.4,6.6-6.1,6.6h-6.3v-0.7c1.5,0,1.8-0.3,1.8-1.3v-9.4
		c0-0.9-0.3-1.3-1.8-1.3C-863.2,464.2-863.2,463.5-863.2,463.5z M-859.5,474.7c0,1.1,0.3,1.4,2,1.4c3.8,0,4.5-2.4,4.5-6
		c0-4.6-1.5-6-4.5-6c-1.7,0-2,0.3-2,1.4C-859.5,465.6-859.5,474.7-859.5,474.7z"/>
	<path class="st3" d="M-847.8,465.4c0-0.9-0.3-1.3-1.8-1.3v-0.7h6.2c3.6,0,4.8,1.7,4.8,3.3c0,1.7-1.7,2.9-3.7,2.9v0
		c2.8,0.1,4.4,1.4,4.4,3.4c0,1.2-1.1,3.6-4.4,3.6h-7.3v-0.7c1.4,0,1.8-0.3,1.8-1.3V465.4z M-843.9,469.5c2.6,0,3.2-1,3.2-2.5
		c0-2-1-2.8-3.3-2.8c-1.6,0-1.7,0.4-1.7,1v4.4H-843.9z M-845.8,470.1v4.6c0,1,0.4,1.3,2,1.3c2.9,0,3.7-1.1,3.7-3c0-1.8-0.8-3-2.7-3
		C-842.8,470.1-845.8,470.1-845.8,470.1z"/>
</g>
<g>
	<path class="st3" d="M-817.7,476.2c-1.2,0-3.1,0-3.1,0v-12.1c0,0,1.8,0,2.9,0c2.6,0,3.7,1.6,3.7,6.5
		C-814.1,474.7-815.1,476.2-817.7,476.2z M-818.2,465.8c-0.2,0-0.3,0-0.3,0v8.8c0,0,0.2,0,0.5,0c1.3,0,1.6-0.6,1.6-3.9
		C-816.5,466.7-816.9,465.8-818.2,465.8z"/>
	<path class="st3" d="M-809.3,476.2l-0.4-2.2h-1.7l-0.4,2.2h-2.2l2.3-12.1h2.3l2.5,12.1H-809.3z M-810.5,469.2
		c-0.1-0.7-0.2-1.4-0.2-1.9c0,0.4-0.1,1.1-0.2,1.8c-0.2,1.5-0.4,3.1-0.4,3.1h1.2C-810,472.3-810.3,470.7-810.5,469.2z"/>
	<path class="st3" d="M-806.2,476.2v-12.1h2.3v12.1H-806.2z"/>
	<path class="st3" d="M-802.4,476.2v-12.1h2.3v10.1h3v1.9H-802.4z"/>
	<path class="st3" d="M-793.7,471.5v4.8h-2.3v-4.8l-2.4-7.3h2.4l1.3,4.7l1.3-4.7h2.1L-793.7,471.5z"/>
	<path class="st3" d="M-783.7,476.2c-1.3,0-3.1,0-3.1,0v-12.1c0,0,1.7,0,2.9,0c2.2,0,3.2,1.2,3.2,3.2c0,1.5-0.6,2.3-1.7,2.4
		c1.1,0.1,2.1,1.1,2.1,3C-780.5,475.4-781.9,476.2-783.7,476.2z M-784.3,465.8c-0.3,0-0.3,0-0.3,0v3.3c0,0,0.2,0,0.4,0
		c0.7,0,1.1-0.5,1.1-1.6C-783.1,466.2-783.5,465.8-784.3,465.8z M-784.1,470.7c-0.3,0-0.5,0-0.5,0v3.9c0,0,0.2,0,0.5,0
		c0.8,0,1.2-0.5,1.2-2C-782.8,471.4-783.3,470.7-784.1,470.7z"/>
	<path class="st3" d="M-775.2,476.2c-0.3-0.5-0.3-1.5-0.3-3.5c0-0.9-0.2-1.6-1.1-1.6c-0.3,0-0.5,0-0.5,0v5.1h-2.3v-12.1
		c0,0,1.8,0,3.2,0c2,0,3.2,1.1,3.2,3.3c0,1.9-0.7,2.5-2,2.7c1.4,0.2,1.7,1.3,1.7,3.2c0,1.1,0.1,2.4,0.5,2.8L-775.2,476.2
		L-775.2,476.2z M-776.9,465.8c-0.2,0-0.2,0-0.2,0v3.6c0,0,0.2,0,0.5,0c0.8,0,1.2-0.5,1.2-1.7C-775.4,466.2-775.9,465.8-776.9,465.8
		z"/>
	<path class="st3" d="M-768.6,476.4c-2.5,0-3.2-1.3-3.2-3.4c0-3.5,0-8.8,0-8.8h2.3c0,0,0,5.3,0,8.7c0,1.1,0.1,1.8,0.9,1.8
		c0.8,0,0.9-0.7,0.9-1.8c0-3.5,0-8.7,0-8.7h2.3c0,0,0,5.3,0,8.8C-765.4,475.1-766.1,476.4-768.6,476.4z"/>
	<path class="st3" d="M-763.9,476.2v-12.1h2.3v12.1H-763.9z"/>
	<path class="st3" d="M-755.7,476.2c0,0-1.2-3.3-2-5.6c-0.2-0.5-0.3-0.8-0.5-1.6c0.1,0.8,0.1,1.6,0.1,2.4c0,1.6,0,4.8,0,4.8h-2.1
		v-12.1h2c0,0,1.1,3.4,1.9,5.4c0.2,0.5,0.3,0.8,0.5,1.6c-0.1-0.8-0.1-1.6-0.1-2.5c0-1.7,0-4.5,0-4.5h2.1v12.1H-755.7z"/>
	<path class="st3" d="M-748.6,476.2v-12.1h5.2v1.9h-2.9v3h2.6v1.9h-2.6v3.3h3.2v1.9L-748.6,476.2L-748.6,476.2z"/>
	<path class="st3" d="M-739,476.2c-1.2,0-3.1,0-3.1,0v-12.1c0,0,1.8,0,2.9,0c2.6,0,3.7,1.6,3.7,6.5
		C-735.4,474.7-736.4,476.2-739,476.2z M-739.5,465.8c-0.2,0-0.3,0-0.3,0v8.8c0,0,0.2,0,0.5,0c1.3,0,1.6-0.6,1.6-3.9
		C-737.8,466.7-738.2,465.8-739.5,465.8z"/>
	<path class="st3" d="M-734.3,476.2v-12.1h2.3v12.1H-734.3z"/>
	<path class="st3" d="M-726.8,466v10.2h-2.3V466h-2.1v-1.9h6.4v1.9H-726.8z"/>
	<path class="st3" d="M-721,476.4c-2.4,0-3.5-1.1-3.5-6.2c0-4.9,1.1-6.2,3.5-6.2s3.5,1.3,3.5,6.2
		C-717.5,475.2-718.6,476.4-721,476.4z M-721,465.5c-1.1,0-1.1,1.2-1.1,4.7c0,3.7,0.1,4.7,1.1,4.7c1.1,0,1.1-1,1.1-4.7
		C-719.9,466.7-720,465.5-721,465.5z"/>
	<path class="st3" d="M-712.2,476.2c-0.3-0.5-0.3-1.5-0.3-3.5c0-0.9-0.2-1.6-1.1-1.6c-0.3,0-0.5,0-0.5,0v5.1h-2.3v-12.1
		c0,0,1.8,0,3.2,0c2,0,3.2,1.1,3.2,3.3c0,1.9-0.7,2.5-2,2.7c1.4,0.2,1.7,1.3,1.7,3.2c0,1.1,0.1,2.4,0.5,2.8L-712.2,476.2
		L-712.2,476.2z M-713.8,465.8c-0.2,0-0.2,0-0.2,0v3.6c0,0,0.2,0,0.5,0c0.8,0,1.2-0.5,1.2-1.7C-712.4,466.2-712.9,465.8-713.8,465.8
		z"/>
	<path class="st3" d="M-708.7,476.2v-12.1h2.3v12.1H-708.7z"/>
	<path class="st3" d="M-701,476.2l-0.4-2.2h-1.7l-0.4,2.2h-2.2l2.3-12.1h2.3l2.5,12.1H-701z M-702.1,469.2c-0.1-0.7-0.2-1.4-0.2-1.9
		c0,0.4-0.1,1.1-0.2,1.8c-0.2,1.5-0.4,3.1-0.4,3.1h1.2C-701.7,472.3-701.9,470.7-702.1,469.2z"/>
	<path class="st3" d="M-697.8,476.2v-12.1h2.3v10.1h3v1.9H-697.8z"/>
	<path class="st3" d="M-684.8,476.2c-1.3,0-3.1,0-3.1,0v-12.1c0,0,1.7,0,2.9,0c2.2,0,3.2,1.2,3.2,3.2c0,1.5-0.6,2.3-1.7,2.4
		c1.1,0.1,2.1,1.1,2.1,3C-681.6,475.4-683,476.2-684.8,476.2z M-685.4,465.8c-0.3,0-0.3,0-0.3,0v3.3c0,0,0.2,0,0.4,0
		c0.7,0,1.1-0.5,1.1-1.6C-684.2,466.2-684.6,465.8-685.4,465.8z M-685.2,470.7c-0.3,0-0.5,0-0.5,0v3.9c0,0,0.2,0,0.5,0
		c0.8,0,1.2-0.5,1.2-2C-683.9,471.4-684.3,470.7-685.2,470.7z"/>
	<path class="st3" d="M-677.3,476.4c-2.4,0-3.5-1.1-3.5-6.2c0-4.9,1.1-6.2,3.5-6.2c2.4,0,3.5,1.3,3.5,6.2
		C-673.8,475.2-674.9,476.4-677.3,476.4z M-677.3,465.5c-1.1,0-1.1,1.2-1.1,4.7c0,3.7,0.1,4.7,1.1,4.7c1.1,0,1.1-1,1.1-4.7
		C-676.2,466.7-676.3,465.5-677.3,465.5z"/>
	<path class="st3" d="M-669,476.2l-0.4-2.2h-1.7l-0.4,2.2h-2.2l2.3-12.1h2.3l2.5,12.1H-669z M-670.1,469.2c-0.1-0.7-0.2-1.4-0.2-1.9
		c0,0.4-0.1,1.1-0.2,1.8c-0.2,1.5-0.4,3.1-0.4,3.1h1.2C-669.7,472.3-669.9,470.7-670.1,469.2z"/>
	<path class="st3" d="M-661.6,476.2c-0.3-0.5-0.3-1.5-0.3-3.5c0-0.9-0.2-1.6-1.1-1.6c-0.3,0-0.5,0-0.5,0v5.1h-2.3v-12.1
		c0,0,1.8,0,3.2,0c2,0,3.2,1.1,3.2,3.3c0,1.9-0.7,2.5-2,2.7c1.4,0.2,1.7,1.3,1.7,3.2c0,1.1,0.1,2.4,0.5,2.8L-661.6,476.2
		L-661.6,476.2z M-663.3,465.8c-0.2,0-0.2,0-0.2,0v3.6c0,0,0.2,0,0.5,0c0.8,0,1.2-0.5,1.2-1.7C-661.8,466.2-662.3,465.8-663.3,465.8
		z"/>
	<path class="st3" d="M-655.1,476.2c-1.2,0-3.1,0-3.1,0v-12.1c0,0,1.8,0,2.9,0c2.6,0,3.7,1.6,3.7,6.5
		C-651.5,474.7-652.5,476.2-655.1,476.2z M-655.6,465.8c-0.2,0-0.3,0-0.3,0v8.8c0,0,0.2,0,0.5,0c1.3,0,1.6-0.6,1.6-3.9
		C-653.9,466.7-654.3,465.8-655.6,465.8z"/>
</g>
</svg>
