<?xml version="1.0" encoding="utf-8"?>
<!-- Generator: Adobe Illustrator 19.0.0, SVG Export Plug-In . SVG Version: 6.00 Build 0)  -->
<svg version="1.1" id="Layer_1" xmlns="http://www.w3.org/2000/svg" xmlns:xlink="http://www.w3.org/1999/xlink" x="0px" y="0px"
	 width="241.2px" height="43.4px" viewBox="-870 450.5 241.2 43.4" style="enable-background:new -870 450.5 241.2 43.4;"
	 xml:space="preserve">
<style type="text/css">
	.st0{fill:#0080C6;}
	.st1{fill:none;stroke:#FFFFFF;stroke-miterlimit:10;}
	.st2{fill:none;}
	.st3{fill:#FFFFFF;}
</style>
<ellipse class="st0" cx="-848.5" cy="472.2" rx="21.5" ry="21.7"/>
<ellipse class="st1" cx="-848.4" cy="472.3" rx="19.5" ry="19.7"/>
<g>
	<rect x="-870" y="464.9" class="st2" width="43" height="22.7"/>
	<path class="st3" d="M-862.5,464.9h6.8c3.1,0,6.9,2.3,6.9,7.3c0,5-3.7,7.3-6.7,7.3h-7v-0.7c1.6,0,2-0.4,2-1.4V467
		c0-1-0.4-1.4-2-1.4C-862.5,465.6-862.5,464.9-862.5,464.9z M-858.4,477.3c0,1.2,0.3,1.5,2.2,1.5c4.2,0,4.9-2.6,4.9-6.6
		c0-5.1-1.6-6.6-4.9-6.6c-1.9,0-2.2,0.3-2.2,1.5C-858.4,467.1-858.4,477.3-858.4,477.3z"/>
	<path class="st3" d="M-845.5,467c0-1-0.4-1.4-1.9-1.4v-0.7h6.8c4,0,5.3,1.9,5.3,3.6c0,1.9-1.9,3.2-4.1,3.2v0
		c3.1,0.1,4.8,1.5,4.8,3.8c0,1.4-1.2,4-4.8,4h-8v-0.7c1.6,0,1.9-0.4,1.9-1.4V467z M-841.2,471.5c2.8,0,3.5-1.1,3.5-2.8
		c0-2.2-1.1-3.1-3.7-3.1c-1.7,0-1.9,0.5-1.9,1.1v4.8H-841.2z M-843.3,472.2v5.1c0,1.1,0.4,1.5,2.2,1.5c3.2,0,4.1-1.2,4.1-3.3
		c0-2-0.9-3.3-2.9-3.3C-840,472.2-843.3,472.2-843.3,472.2z"/>
</g>
<g>
	<path class="st3" d="M-812.3,478.9c-1.3,0-3.4,0-3.4,0v-13.3c0,0,2,0,3.2,0c2.9,0,4.1,1.8,4.1,7.2
		C-808.3,477.2-809.4,478.9-812.3,478.9z M-812.8,467.4c-0.2,0-0.4,0-0.4,0v9.7c0,0,0.3,0,0.5,0c1.4,0,1.7-0.6,1.7-4.3
		C-810.9,468.4-811.4,467.4-812.8,467.4z"/>
	<path class="st3" d="M-803,478.9l-0.5-2.4h-1.9l-0.4,2.4h-2.4l2.5-13.4h2.6l2.8,13.4H-803z M-804.3,471.2c-0.1-0.8-0.2-1.6-0.2-2
		c0,0.5-0.1,1.2-0.2,2c-0.2,1.6-0.4,3.5-0.4,3.5h1.3C-803.8,474.6-804,472.8-804.3,471.2z"/>
	<path class="st3" d="M-799.5,478.9v-13.3h2.5v13.3H-799.5z"/>
	<path class="st3" d="M-795.3,478.9v-13.3h2.5v11.2h3.3v2.1H-795.3z"/>
	<path class="st3" d="M-785.7,473.6v5.2h-2.5v-5.2l-2.7-8.1h2.6l1.5,5.1l1.4-5.1h2.4L-785.7,473.6z"/>
	<path class="st3" d="M-774.8,478.9c-1.4,0-3.5,0-3.5,0v-13.3c0,0,1.9,0,3.2,0c2.4,0,3.5,1.4,3.5,3.6c0,1.7-0.7,2.6-1.9,2.7
		c1.2,0.1,2.3,1.2,2.3,3.3C-771.2,478-772.7,478.9-774.8,478.9z M-775.4,467.4c-0.3,0-0.4,0-0.4,0v3.6c0,0,0.2,0,0.5,0
		c0.8,0,1.2-0.5,1.2-1.7C-774.1,467.9-774.5,467.4-775.4,467.4z M-775.2,472.8c-0.3,0-0.6,0-0.6,0v4.3c0,0,0.2,0,0.6,0
		c0.9,0,1.4-0.5,1.4-2.2C-773.8,473.6-774.2,472.8-775.2,472.8z"/>
	<path class="st3" d="M-765.3,478.9c-0.3-0.5-0.4-1.6-0.4-3.8c0-1-0.3-1.7-1.2-1.7c-0.3,0-0.5,0-0.5,0v5.6h-2.5v-13.3c0,0,2,0,3.5,0
		c2.2,0,3.5,1.2,3.5,3.7c0,2.1-0.8,2.8-2.2,3c1.5,0.2,1.9,1.4,1.9,3.5c0,1.3,0.1,2.6,0.5,3.1L-765.3,478.9L-765.3,478.9z
		 M-767.2,467.4c-0.2,0-0.2,0-0.2,0v4c0,0,0.2,0,0.5,0c0.9,0,1.4-0.5,1.4-1.9C-765.5,467.8-766.1,467.4-767.2,467.4z"/>
	<path class="st3" d="M-758,479.1c-2.7,0-3.5-1.5-3.5-3.8c0-3.9,0-9.8,0-9.8h2.5c0,0,0,5.8,0,9.6c0,1.2,0.1,2,1,2c0.9,0,1-0.8,1-2
		c0-3.8,0-9.6,0-9.6h2.5c0,0,0,5.9,0,9.8C-754.5,477.6-755.3,479.1-758,479.1z"/>
	<path class="st3" d="M-752.9,478.9v-13.3h2.5v13.3H-752.9z"/>
	<path class="st3" d="M-743.8,478.9c0,0-1.3-3.7-2.2-6.1c-0.2-0.5-0.3-0.9-0.6-1.8c0.1,0.9,0.1,1.7,0.1,2.6c0,1.8,0,5.3,0,5.3h-2.3
		v-13.3h2.2c0,0,1.3,3.7,2.1,6c0.2,0.5,0.3,0.9,0.5,1.7c-0.1-0.9-0.1-1.7-0.1-2.8c0-1.9,0-4.9,0-4.9h2.3v13.3H-743.8z"/>
	<path class="st3" d="M-736,478.9v-13.3h5.7v2.1h-3.2v3.3h2.8v2.1h-2.8v3.7h3.6v2.1L-736,478.9L-736,478.9z"/>
	<path class="st3" d="M-725.4,478.9c-1.3,0-3.4,0-3.4,0v-13.3c0,0,2,0,3.2,0c2.9,0,4.1,1.8,4.1,7.2
		C-721.4,477.2-722.5,478.9-725.4,478.9z M-725.9,467.4c-0.2,0-0.4,0-0.4,0v9.7c0,0,0.3,0,0.5,0c1.4,0,1.7-0.6,1.7-4.3
		C-724,468.4-724.5,467.4-725.9,467.4z"/>
	<path class="st3" d="M-720.1,478.9v-13.3h2.5v13.3H-720.1z"/>
	<path class="st3" d="M-711.8,467.7v11.2h-2.5v-11.2h-2.3v-2.1h7.1v2.1H-711.8z"/>
	<path class="st3" d="M-705.5,479.1c-2.7,0-3.9-1.2-3.9-6.9c0-5.5,1.2-6.9,3.9-6.9c2.7,0,3.9,1.5,3.9,6.9
		C-701.7,477.8-702.9,479.1-705.5,479.1z M-705.5,467c-1.2,0-1.2,1.3-1.2,5.2c0,4.1,0.1,5.1,1.2,5.1c1.2,0,1.3-1.1,1.3-5.1
		C-704.3,468.3-704.4,467-705.5,467z"/>
	<path class="st3" d="M-695.7,478.9c-0.3-0.5-0.4-1.6-0.4-3.8c0-1-0.3-1.7-1.2-1.7c-0.3,0-0.5,0-0.5,0v5.6h-2.5v-13.3c0,0,2,0,3.5,0
		c2.2,0,3.5,1.2,3.5,3.7c0,2.1-0.8,2.8-2.2,3c1.5,0.2,1.9,1.4,1.9,3.5c0,1.3,0.1,2.6,0.5,3.1L-695.7,478.9L-695.7,478.9z
		 M-697.6,467.4c-0.2,0-0.2,0-0.2,0v4c0,0,0.2,0,0.5,0c0.9,0,1.4-0.5,1.4-1.9C-695.9,467.8-696.5,467.4-697.6,467.4z"/>
	<path class="st3" d="M-691.9,478.9v-13.3h2.5v13.3H-691.9z"/>
	<path class="st3" d="M-683.4,478.9l-0.5-2.4h-1.9l-0.4,2.4h-2.4l2.5-13.4h2.6l2.8,13.4H-683.4z M-684.6,471.2
		c-0.1-0.8-0.2-1.6-0.2-2c0,0.5-0.1,1.2-0.2,2c-0.2,1.6-0.4,3.5-0.4,3.5h1.3C-684.1,474.6-684.4,472.8-684.6,471.2z"/>
	<path class="st3" d="M-679.9,478.9v-13.3h2.5v11.2h3.3v2.1H-679.9z"/>
	<path class="st3" d="M-665.5,478.9c-1.4,0-3.5,0-3.5,0v-13.3c0,0,1.9,0,3.2,0c2.4,0,3.5,1.4,3.5,3.6c0,1.7-0.7,2.6-1.9,2.7
		c1.2,0.1,2.3,1.2,2.3,3.3C-661.9,478-663.5,478.9-665.5,478.9z M-666.2,467.4c-0.3,0-0.4,0-0.4,0v3.6c0,0,0.2,0,0.5,0
		c0.8,0,1.2-0.5,1.2-1.7C-664.9,467.9-665.3,467.4-666.2,467.4z M-666,472.8c-0.3,0-0.6,0-0.6,0v4.3c0,0,0.2,0,0.6,0
		c0.9,0,1.4-0.5,1.4-2.2C-664.6,473.6-665,472.8-666,472.8z"/>
	<path class="st3" d="M-657.2,479.1c-2.7,0-3.9-1.2-3.9-6.9c0-5.5,1.2-6.9,3.9-6.9c2.7,0,3.9,1.5,3.9,6.9
		C-653.4,477.8-654.6,479.1-657.2,479.1z M-657.2,467c-1.2,0-1.2,1.3-1.2,5.2c0,4.1,0.1,5.1,1.2,5.1c1.2,0,1.3-1.1,1.3-5.1
		C-656,468.3-656.1,467-657.2,467z"/>
	<path class="st3" d="M-648.1,478.9l-0.5-2.4h-1.9l-0.4,2.4h-2.4l2.5-13.4h2.6l2.8,13.4H-648.1z M-649.3,471.2
		c-0.1-0.8-0.2-1.6-0.2-2c0,0.5-0.1,1.2-0.2,2c-0.2,1.6-0.4,3.5-0.4,3.5h1.3C-648.8,474.6-649.1,472.8-649.3,471.2z"/>
	<path class="st3" d="M-639.9,478.9c-0.3-0.5-0.4-1.6-0.4-3.8c0-1-0.3-1.7-1.2-1.7c-0.3,0-0.5,0-0.5,0v5.6h-2.5v-13.3c0,0,2,0,3.5,0
		c2.2,0,3.5,1.2,3.5,3.7c0,2.1-0.8,2.8-2.2,3c1.5,0.2,1.9,1.4,1.9,3.5c0,1.3,0.1,2.6,0.5,3.1L-639.9,478.9L-639.9,478.9z
		 M-641.8,467.4c-0.2,0-0.2,0-0.2,0v4c0,0,0.2,0,0.5,0c0.9,0,1.4-0.5,1.4-1.9C-640.1,467.8-640.7,467.4-641.8,467.4z"/>
	<path class="st3" d="M-632.7,478.9c-1.3,0-3.4,0-3.4,0v-13.3c0,0,2,0,3.2,0c2.9,0,4.1,1.8,4.1,7.2
		C-628.8,477.2-629.8,478.9-632.7,478.9z M-633.2,467.4c-0.2,0-0.4,0-0.4,0v9.7c0,0,0.3,0,0.5,0c1.4,0,1.7-0.6,1.7-4.3
		C-631.4,468.4-631.9,467.4-633.2,467.4z"/>
</g>
</svg>
